<mxfile host="65bd71144e">
    <diagram id="5z35B7MemDmh5GD4umOn" name="Page-1">
        <mxGraphModel dx="982" dy="931" grid="1" gridSize="10" guides="1" tooltips="1" connect="1" arrows="1" fold="1" page="1" pageScale="1" pageWidth="850" pageHeight="1100" math="0" shadow="0">
            <root>
                <mxCell id="0"/>
                <mxCell id="1" parent="0"/>
                <mxCell id="2" value="Callback Queue(Macro Task)" style="rounded=0;whiteSpace=wrap;html=1;fillColor=#60a917;fontColor=#ffffff;strokeColor=#2D7600;" vertex="1" parent="1">
                    <mxGeometry x="400" y="260" width="270" height="40" as="geometry"/>
                </mxCell>
                <mxCell id="3" value="Micro Task Queue" style="rounded=0;whiteSpace=wrap;html=1;fillColor=#008a00;fontColor=#ffffff;strokeColor=#005700;" vertex="1" parent="1">
                    <mxGeometry x="400" y="320" width="270" height="40" as="geometry"/>
                </mxCell>
                <mxCell id="5" value="Event&lt;br&gt;Loop" style="ellipse;whiteSpace=wrap;html=1;aspect=fixed;fillColor=#a20025;fontColor=#ffffff;strokeColor=#6F0000;" vertex="1" parent="1">
                    <mxGeometry x="260" y="270" width="80" height="80" as="geometry"/>
                </mxCell>
                <mxCell id="6" value="Web APIs(setTimeout,promise,etc)" style="shape=process;whiteSpace=wrap;html=1;backgroundOutline=1;fillColor=#fa6800;strokeColor=#C73500;fontColor=#000000;" vertex="1" parent="1">
                    <mxGeometry x="400" y="80" width="270" height="90" as="geometry"/>
                </mxCell>
                <mxCell id="7" value="Call Stack" style="rounded=0;whiteSpace=wrap;html=1;fillColor=#d80073;strokeColor=#A50040;fontColor=#ffffff;" vertex="1" parent="1">
                    <mxGeometry x="250" y="80" width="100" height="160" as="geometry"/>
                </mxCell>
                <UserObject label="Code" tags="JS Code" id="8">
                    <mxCell style="shape=note;whiteSpace=wrap;html=1;backgroundOutline=1;darkOpacity=0.05;fillColor=#f5f5f5;fontColor=#333333;strokeColor=#666666;fontSize=20;" vertex="1" parent="1">
                        <mxGeometry x="50" y="80" width="120" height="190" as="geometry"/>
                    </mxCell>
                </UserObject>
                <mxCell id="17" value="" style="shape=curlyBracket;whiteSpace=wrap;html=1;rounded=1;flipH=1;labelPosition=right;verticalLabelPosition=middle;align=left;verticalAlign=middle;sketch=0;fontSize=20;fontColor=#080808;direction=west;" vertex="1" parent="1">
                    <mxGeometry x="330" y="250" width="60" height="120" as="geometry"/>
                </mxCell>
                <mxCell id="20" value="" style="endArrow=classic;html=1;fontSize=20;fontColor=#080808;entryX=0;entryY=0.5;entryDx=0;entryDy=0;exitX=1.028;exitY=0.428;exitDx=0;exitDy=0;exitPerimeter=0;" edge="1" parent="1" source="8" target="7">
                    <mxGeometry width="50" height="50" relative="1" as="geometry">
                        <mxPoint x="170" y="200" as="sourcePoint"/>
                        <mxPoint x="220" y="150" as="targetPoint"/>
                        <Array as="points">
                            <mxPoint x="210" y="160"/>
                        </Array>
                    </mxGeometry>
                </mxCell>
                <mxCell id="21" value="" style="shape=flexArrow;endArrow=classic;html=1;fontSize=20;fontColor=#080808;exitX=1;exitY=0.325;exitDx=0;exitDy=0;exitPerimeter=0;" edge="1" parent="1" source="7">
                    <mxGeometry width="50" height="50" relative="1" as="geometry">
                        <mxPoint x="350" y="180" as="sourcePoint"/>
                        <mxPoint x="400" y="130" as="targetPoint"/>
                    </mxGeometry>
                </mxCell>
                <mxCell id="22" value="" style="endArrow=classic;html=1;fontSize=20;fontColor=#080808;" edge="1" parent="1">
                    <mxGeometry width="50" height="50" relative="1" as="geometry">
                        <mxPoint x="670" y="130" as="sourcePoint"/>
                        <mxPoint x="720" y="320" as="targetPoint"/>
                        <Array as="points">
                            <mxPoint x="760" y="130"/>
                            <mxPoint x="760" y="320"/>
                        </Array>
                    </mxGeometry>
                </mxCell>
                <mxCell id="23" value="" style="shape=curlyBracket;whiteSpace=wrap;html=1;rounded=1;flipH=1;labelPosition=right;verticalLabelPosition=middle;align=left;verticalAlign=middle;sketch=0;fontSize=20;fontColor=#080808;" vertex="1" parent="1">
                    <mxGeometry x="700" y="260" width="20" height="110" as="geometry"/>
                </mxCell>
                <mxCell id="25" value="" style="endArrow=classic;html=1;fontSize=20;fontColor=#080808;exitX=0.408;exitY=0;exitDx=0;exitDy=0;exitPerimeter=0;entryX=0.427;entryY=1.025;entryDx=0;entryDy=0;entryPerimeter=0;" edge="1" parent="1" source="5" target="7">
                    <mxGeometry width="50" height="50" relative="1" as="geometry">
                        <mxPoint x="280" y="290" as="sourcePoint"/>
                        <mxPoint x="330" y="240" as="targetPoint"/>
                    </mxGeometry>
                </mxCell>
                <mxCell id="26" value="" style="rounded=0;whiteSpace=wrap;html=1;sketch=0;fontSize=20;fontColor=#080808;" vertex="1" parent="1">
                    <mxGeometry x="390" y="450" width="120" height="60" as="geometry"/>
                </mxCell>
                <mxCell id="27" value="Code is placed inside the call stack one by one its executed" style="rounded=0;whiteSpace=wrap;html=1;sketch=0;fontSize=20;fontColor=#333333;fillColor=#f5f5f5;strokeColor=#666666;" vertex="1" parent="1">
                    <mxGeometry x="40" y="400" width="710" height="60" as="geometry"/>
                </mxCell>
                <mxCell id="28" value="If the code required web api its removed from the call stack and next line is added to call stack, parrelly the web api is executing the removed code." style="rounded=0;whiteSpace=wrap;html=1;sketch=0;fontSize=20;fontColor=#333333;fillColor=#f5f5f5;strokeColor=#666666;" vertex="1" parent="1">
                    <mxGeometry x="40" y="470" width="710" height="80" as="geometry"/>
                </mxCell>
                <mxCell id="29" value="Once the Web api finishes the execution the result will be placed back to Queue(Callback queue or Micro Task Queue)" style="rounded=0;whiteSpace=wrap;html=1;sketch=0;fontSize=20;fontColor=#333333;fillColor=#f5f5f5;strokeColor=#666666;" vertex="1" parent="1">
                    <mxGeometry x="40" y="560" width="710" height="70" as="geometry"/>
                </mxCell>
                <mxCell id="30" value="CallBack Queue:- the call back from setTime out and other web apis are placed inside the callback queue. example:- setTimeout(()=&amp;gt;console.log(&quot;hello&quot;),1000), after webapi waits for 1000ms the callback ie console.log(&quot;hello&quot;) is placed in callback Queue" style="rounded=0;whiteSpace=wrap;html=1;sketch=0;fontSize=20;fontColor=#333333;fillColor=#f5f5f5;strokeColor=#666666;" vertex="1" parent="1">
                    <mxGeometry x="39" y="640" width="710" height="140" as="geometry"/>
                </mxCell>
                <mxCell id="31" value="MicroTask Queue:- call backs from few webapis like PromiseThen and mutation task is placed in Micro Task queue.Example&lt;br&gt;Promise.resolve(()=&amp;gt;console.log(&quot;hello&quot;))&lt;br&gt;once the promise is resolved the console.log(&quot;hello&quot;)) will be placed in Micro task queue." style="rounded=0;whiteSpace=wrap;html=1;sketch=0;fontSize=20;fontColor=#333333;fillColor=#f5f5f5;strokeColor=#666666;" vertex="1" parent="1">
                    <mxGeometry x="39" y="790" width="710" height="130" as="geometry"/>
                </mxCell>
                <mxCell id="32" value="Event Loop keeps checking the Call stack whenever its empty it will fetch tasks placed in Micro task queue and Call back queue and place it in Call stack. Priority of Micro task is more then Callback Queue" style="rounded=0;whiteSpace=wrap;html=1;sketch=0;fontSize=20;fontColor=#333333;fillColor=#f5f5f5;strokeColor=#666666;" vertex="1" parent="1">
                    <mxGeometry x="40" y="930" width="710" height="110" as="geometry"/>
                </mxCell>
            </root>
        </mxGraphModel>
    </diagram>
</mxfile>